<?xml version="1.0" standalone="no"?>
<!DOCTYPE svg PUBLIC "-//W3C//DTD SVG 20010904//EN"
 "http://www.w3.org/TR/2001/REC-SVG-20010904/DTD/svg10.dtd">
<svg version="1.0" xmlns="http://www.w3.org/2000/svg"
 width="740.000000pt" height="740.000000pt" viewBox="0 0 740.000000 740.000000"
 preserveAspectRatio="xMidYMid meet">
<metadata>
Created by potrace 1.14, written by Peter Selinger 2001-2017
</metadata>
<g transform="translate(0.000000,740.000000) scale(0.100000,-0.100000)"
fill="#000000" stroke="none">
<path d="M4687 6833 c-1 0 -58 -4 -126 -7 -68 -3 -133 -8 -145 -11 -11 -2 -48
-7 -81 -10 -33 -3 -75 -7 -92 -10 -42 -6 -76 -11 -133 -20 -25 -3 -79 -12
-122 -20 -42 -8 -100 -17 -129 -20 -30 -4 -57 -12 -61 -18 -4 -7 -42 -100 -84
-207 -43 -107 -106 -267 -141 -354 -34 -88 -63 -166 -63 -173 0 -7 -4 -13 -8
-13 -4 0 -14 -21 -22 -47 -7 -26 -19 -59 -27 -73 -15 -30 -17 -50 -3 -50 5 0
29 6 52 14 41 14 217 61 266 71 12 3 32 7 45 10 106 23 168 33 307 50 248 32
627 19 830 -27 25 -5 52 -11 60 -13 129 -29 199 -51 309 -100 47 -21 103 -48
125 -62 23 -13 49 -26 59 -30 9 -3 17 -9 17 -14 0 -5 5 -9 11 -9 10 0 86 -51
126 -84 48 -39 173 -166 173 -175 0 -6 4 -11 8 -11 21 0 179 -233 224 -330 49
-107 105 -274 106 -320 0 -8 3 -27 6 -41 22 -101 27 -283 12 -428 -7 -60 -46
-265 -71 -369 -14 -56 -85 -255 -99 -277 -17 -26 -16 -26 -153 -28 -46 -1 -53
-3 -54 -21 0 -12 0 -111 0 -220 l1 -200 52 -85 c28 -48 61 -100 72 -116 l21
-31 250 1 250 1 70 42 c158 95 553 342 713 446 68 43 119 83 114 88 -10 10
-190 23 -378 27 l-32 1 45 133 c25 72 46 137 47 142 2 6 12 42 24 80 20 68 57
207 68 256 12 57 35 187 40 224 3 22 7 51 9 65 17 97 23 354 11 485 -12 141
-16 168 -36 260 -41 184 -45 195 -139 383 -31 62 -60 120 -66 130 -92 161
-187 312 -197 312 -4 0 -8 5 -8 11 0 7 -15 31 -34 54 -122 149 -353 324 -583
443 -75 39 -289 130 -323 137 -8 2 -35 10 -60 18 -107 36 -326 87 -425 101
-22 2 -58 7 -80 10 -88 12 -134 16 -230 22 -96 6 -315 11 -318 7z"/>
<path d="M1960 6295 c0 -6 27 -50 43 -70 4 -5 26 -39 48 -75 23 -36 47 -68 53
-72 6 -4 7 -8 2 -8 -4 0 3 -15 18 -34 14 -19 26 -38 26 -43 0 -4 -42 -35 -92
-68 -92 -60 -281 -199 -328 -241 -14 -12 -63 -55 -110 -95 -212 -182 -478
-452 -655 -664 -27 -33 -52 -62 -55 -65 -12 -10 -157 -206 -197 -265 -74 -110
-145 -229 -201 -335 -30 -58 -58 -109 -62 -115 -4 -5 -35 -73 -70 -150 -34
-77 -69 -156 -78 -175 -26 -59 -111 -310 -138 -410 -28 -103 -28 -103 -39
-170 -3 -25 -9 -58 -12 -75 -33 -193 -35 -587 -3 -766 5 -30 11 -65 14 -79 31
-170 144 -472 183 -487 12 -5 175 34 373 88 41 11 82 22 91 24 10 2 79 20 155
40 77 21 146 39 154 40 8 2 15 4 15 5 0 1 9 3 20 6 42 8 220 63 210 64 -5 1
-17 3 -25 5 -8 2 -31 6 -50 10 -19 3 -72 19 -118 34 -228 79 -383 242 -466
491 -44 132 -58 240 -60 440 l-1 185 244 0 c276 0 253 -7 264 85 3 25 15 84
26 131 79 329 237 659 464 970 17 24 19 49 20 350 l2 324 315 3 315 3 138 105
c76 58 145 108 153 111 17 6 136 -110 180 -177 20 -30 33 -40 53 -40 29 0 30
2 81 130 12 30 29 70 37 88 93 213 369 912 363 921 -4 7 -105 13 -291 16 -737
12 -1009 15 -1009 10z"/>
<path d="M1743 4008 c-1 -1098 -1 -1113 -18 -1178 -17 -63 -30 -85 -68 -114
-65 -49 -162 -42 -217 17 -44 47 -62 118 -65 271 -2 72 -4 133 -4 136 -1 4
-618 5 -643 1 -15 -2 4 -286 25 -371 50 -206 142 -352 280 -441 129 -84 288
-121 517 -121 241 -1 438 38 552 109 21 13 41 23 44 23 16 0 122 97 158 144
82 109 117 209 152 436 7 48 13 2056 6 2078 -3 9 -85 12 -361 12 l-358 0 0
-1002z"/>
<path d="M2750 4978 c-1 -35 0 -2667 0 -2705 l0 -23 360 0 360 0 0 550 c0 433
3 550 13 551 71 5 230 -2 264 -12 76 -21 122 -97 137 -229 3 -25 6 -153 7
-285 3 -294 14 -419 47 -520 l17 -50 388 -3 c432 -3 418 -5 348 65 -68 68 -73
100 -77 476 -3 276 -7 344 -23 423 -46 223 -149 339 -331 375 -63 12 -102 29
-67 29 24 0 21 -1 88 25 129 51 204 113 261 219 65 120 87 222 86 406 0 182
-24 295 -86 414 -66 127 -195 230 -348 280 -126 41 -186 44 -826 45 l-618 2 0
-33z m985 -505 c65 -19 110 -54 136 -105 29 -57 34 -87 34 -208 -1 -94 -4
-111 -29 -160 -62 -123 -117 -153 -288 -156 l-118 -2 0 324 0 325 107 -2 c60
-1 130 -8 158 -16z"/>
<path d="M4969 5008 c-1 -2 -2 -623 -3 -1381 l-1 -1377 803 0 802 0 1 140 c0
77 0 169 0 205 0 36 0 105 0 153 l-1 89 -442 0 -441 0 0 1086 0 1087 -358 0
c-198 0 -359 -1 -360 -2z"/>
<path d="M4640 2111 c-14 -9 -26 -19 -28 -23 -2 -5 -8 -8 -14 -8 -6 0 -34 -14
-62 -32 -165 -101 -622 -308 -736 -333 -8 -2 -28 -8 -45 -15 -31 -12 -243 -69
-330 -88 -293 -66 -671 -85 -935 -47 -42 6 -157 26 -185 32 -11 2 -31 6 -45 9
-140 25 -330 97 -330 126 0 14 135 197 161 218 13 11 110 143 107 146 -7 7
-474 -136 -878 -268 -118 -38 -222 -71 -230 -73 -8 -2 -51 -16 -95 -32 -44
-17 -84 -31 -90 -33 -42 -11 -53 -21 -57 -50 -6 -38 -2 -353 6 -510 12 -230
26 -450 31 -490 2 -14 4 -41 5 -60 l1 -35 55 60 c31 33 92 106 137 162 116
146 137 152 317 93 181 -60 360 -108 460 -125 19 -3 42 -8 50 -10 8 -2 35 -7
60 -10 25 -3 58 -8 74 -11 150 -25 498 -35 706 -20 121 9 243 22 283 31 12 3
40 7 62 9 22 3 49 7 60 9 11 3 40 8 65 13 50 9 59 11 63 13 1 2 13 4 27 6 88
12 355 85 531 144 181 61 392 142 400 154 3 5 8 8 10 7 22 -8 514 232 677 331
35 21 68 39 73 39 5 0 9 5 9 10 0 6 5 10 10 10 30 0 532 370 686 506 27 23
135 117 143 124 3 3 12 12 18 21 12 14 -40 16 -595 16 -540 0 -610 -2 -632
-16z"/>
</g>
</svg>
